<?xml version="1.0" encoding="iso-8859-1"?>
<!-- Generator: Adobe Illustrator 19.1.0, SVG Export Plug-In . SVG Version: 6.00 Build 0)  -->
<svg version="1.1" id="Capa_1" xmlns="http://www.w3.org/2000/svg" xmlns:xlink="http://www.w3.org/1999/xlink" x="0px" y="0px"
	 viewBox="0 0 308.385 308.385" style="enable-background:new 0 0 308.385 308.385;" xml:space="preserve">
<g>
	<path style="fill:#FFFFFF;" d="M238.426,227.704c1.483-2.302,2.611-5.184,3.229-9H57.885c7.966,49.369,34.426,70.191,41.021,74.682
		h2.529c-10.527-10.828-25.01-31.345-30.55-65.682H238.426z"/>
	<path style="fill:#FFFFFF;" d="M27.539,268.319V120.792c0.692-22.7,16.021-41.75,21.573-47.927h-10
		c-5.552,6.177-20.881,25.226-21.573,47.927v147.526c0,3.783,2.417,6.978,5.279,6.978h10
		C29.956,275.297,27.539,272.102,27.539,268.319z"/>
	<path style="fill:#FFFFFF;" d="M61.438,29.735h15.5c-0.032-4.416-3.631-8-8.055-8H51.438c-4.444,0-8.06,3.615-8.06,8.059v28.072h10
		V37.793C53.379,33.35,56.995,29.735,61.438,29.735z"/>
	<path style="fill:#FFFFFF;" d="M211.86,89.766l-2.094-6.18l51.558-17.468c-0.372-1.361-0.787-2.727-1.25-4.093l-2.093-6.179
		l-61.215,20.739l2.094,6.18c6.485,19.14,22.415,33.538,34.695,37.186C224.712,113.186,216.185,102.531,211.86,89.766z"/>
	<path style="fill:#FFFFFF;" d="M126.695,189.845c11.876-1.746,19.952-1.198,26.167,0.276c-7.744-3.577-16.955-7.249-37.167-4.276
		c-16.67,2.451-26.558,10.911-32.024,17.858h14.54C104.066,197.807,113.137,191.839,126.695,189.845z"/>
	<path style="fill:#FFFFFF;" d="M196.366,189.411c1.958-3.364,3.142-7.676,2.883-12.533c-3.611-3.417-7.641-5.979-11.5-7.882
		c1.331,6.441,0.082,12.178-2.383,16.415c-4.176,7.179-11.983,10.865-19.793,9.503c2.968,1.382,6.042,2.778,9.474,3.671
		C183.35,200.743,191.917,197.057,196.366,189.411z"/>
	<path style="fill:#FFA5A5;" d="M53.379,37.793v20.072h23.562V29.793c0-0.02-0.003-0.039-0.003-0.059h-15.5
		C56.995,29.735,53.379,33.35,53.379,37.793z"/>
	<path style="fill:none;" d="M76.941,57.866V29.793c0-0.02-0.003-0.039-0.003-0.059c-0.032-4.416-3.631-8-8.055-8H51.438
		c-4.444,0-8.06,3.615-8.06,8.059v28.072h10H76.941z"/>
	<path style="fill:none;" d="M27.539,268.319V120.792c0.692-22.7,16.021-41.75,21.573-47.927h-10
		c-5.552,6.177-20.881,25.226-21.573,47.927v147.526c0,3.783,2.417,6.978,5.279,6.978h10
		C29.956,275.297,27.539,272.102,27.539,268.319z"/>
	<path style="fill:#FFE09C;" d="M43.711,206.202c1.423-1.59,3.455-2.498,5.588-2.498h16.602c4.197-8.069,14.813-23.534,36.88-30.289
		v-52.622c-0.692-22.7-16.021-41.75-21.573-47.927H49.112c-5.552,6.177-20.881,25.226-21.573,47.927v147.526
		c0,3.783,2.417,6.978,5.279,6.978h29.685c-9.142-14.789-17.56-35.394-20.657-63.266C41.61,209.912,42.289,207.791,43.711,206.202z"
		/>
	<path style="fill:none;" d="M76.941,57.866V29.793c0-0.02-0.003-0.039-0.003-0.059c-0.032-4.416-3.631-8-8.055-8H51.438
		c-4.444,0-8.06,3.615-8.06,8.059v28.072h10H76.941z"/>
	<path style="fill:none;" d="M43.711,206.202c1.423-1.59,3.455-2.498,5.588-2.498h16.602c4.197-8.069,14.813-23.534,36.88-30.289
		v-52.622c-0.692-22.7-16.021-41.75-21.573-47.927H49.112h-10c-5.552,6.177-20.881,25.226-21.573,47.927v147.526
		c0,3.783,2.417,6.978,5.279,6.978h10h29.685c-9.142-14.789-17.56-35.394-20.657-63.266
		C41.61,209.912,42.289,207.791,43.711,206.202z"/>
	<path style="fill:#FFA5A5;" d="M212.968,248.932c2.55-6.421,8.365-9.402,13.495-12.033c4.701-2.41,9.036-4.652,11.963-9.195H70.885
		c5.541,34.337,20.023,54.854,30.55,65.682h78.665C185.171,289.889,201.932,276.716,212.968,248.932z"/>
	<path style="fill:none;" d="M76.941,57.866V29.793c0-0.02-0.003-0.039-0.003-0.059c-0.032-4.416-3.631-8-8.055-8H51.438
		c-4.444,0-8.06,3.615-8.06,8.059v28.072h10H76.941z"/>
	<path style="fill:none;" d="M43.711,206.202c1.423-1.59,3.455-2.498,5.588-2.498h16.602c4.197-8.069,14.813-23.534,36.88-30.289
		v-52.622c-0.692-22.7-16.021-41.75-21.573-47.927H49.112h-10c-5.552,6.177-20.881,25.226-21.573,47.927v147.526
		c0,3.783,2.417,6.978,5.279,6.978h10h29.685c-9.142-14.789-17.56-35.394-20.657-63.266
		C41.61,209.912,42.289,207.791,43.711,206.202z"/>
	<path style="fill:none;" d="M98.906,293.385h2.529h78.665c5.07-3.496,21.831-16.669,32.867-44.453
		c2.55-6.421,8.365-9.402,13.495-12.033c4.701-2.41,9.036-4.652,11.963-9.195c1.483-2.302,2.611-5.184,3.229-9H57.885
		C65.851,268.073,92.311,288.895,98.906,293.385z"/>
	<path style="fill:#FFE09C;" d="M126.695,189.845c-13.558,1.994-22.629,7.962-28.485,13.858h112.96
		c-0.593-12.286-5.618-20.862-11.921-26.826c0.259,4.857-0.926,9.169-2.883,12.533c-4.449,7.646-13.016,11.332-21.319,9.174
		c-3.431-0.893-6.504-2.288-9.472-3.67c-0.51-0.089-1.02-0.198-1.528-0.33c-3.623-0.942-6.85-2.445-9.971-3.899
		c-0.401-0.187-0.806-0.375-1.213-0.564c0,0-0.001,0-0.001,0C146.646,188.647,138.57,188.099,126.695,189.845z"/>
	<path style="fill:#D15252;" d="M249.697,203.704h-23.499c-0.777-23.756-13.893-37.255-25.422-44.545
		c-13.359-8.448-27.175-10.247-27.757-10.319c-3.159-0.396-6.224,1.25-7.642,4.102c-1.419,2.851-0.882,6.286,1.337,8.568
		c7.02,7.222,7.451,13.325,5.686,16.357c-0.829,1.424-2.464,2.749-4.579,2.2c-2.301-0.599-4.669-1.701-7.412-2.979
		c-8.426-3.928-19.794-9.219-42.629-6.637v-49.771c0-0.071-0.001-0.143-0.003-0.214c-0.811-28.383-19.246-50.934-25.837-58.114
		v-32.56c0-12.715-10.344-23.059-23.058-23.059H51.438c-12.715,0-23.06,10.344-23.06,23.059v32.56
		c-6.591,7.181-25.026,29.731-25.837,58.114c-0.002,0.071-0.003,0.143-0.003,0.214v147.638c0,12.119,9.097,21.978,20.279,21.978
		h50.667c10.093,11.65,18.791,16.687,19.578,17.129c1.121,0.629,2.385,0.959,3.67,0.959h85.568c1.285,0,2.549-0.33,3.67-0.959
		c1.046-0.587,25.785-14.81,40.937-52.957c0.47-1.183,3.62-2.798,6.398-4.223c8.936-4.582,23.891-12.25,23.891-39.043
		C257.197,207.061,253.839,203.704,249.697,203.704z M152.862,190.122c0.408,0.189,0.812,0.377,1.213,0.564
		c3.121,1.454,6.348,2.957,9.971,3.899c0.508,0.132,1.018,0.241,1.528,0.33c7.81,1.36,15.615-2.326,19.792-9.504
		c2.465-4.237,3.714-9.974,2.383-16.415c3.86,1.903,7.89,4.465,11.5,7.882c6.303,5.964,11.327,14.54,11.921,26.826H98.21H83.67
		c5.467-6.947,15.354-15.407,32.024-17.858C135.907,182.873,145.118,186.544,152.862,190.122z M43.379,29.793
		c0-4.443,3.616-8.059,8.06-8.059h17.444c4.424,0,8.023,3.584,8.055,8c0,0.02,0.003,0.039,0.003,0.059v28.072H53.379h-10V29.793z
		 M32.818,275.297h-10c-2.862,0-5.279-3.195-5.279-6.978V120.792c0.692-22.7,16.021-41.75,21.573-47.927h10h32.096
		c5.552,6.177,20.881,25.226,21.573,47.927v52.622c-22.066,6.755-32.683,22.22-36.88,30.289H49.3c-2.133,0-4.166,0.908-5.588,2.498
		c-1.423,1.59-2.102,3.71-1.866,5.83c3.097,27.871,11.515,48.477,20.657,63.266H32.818z M238.426,227.704
		c-2.927,4.543-7.262,6.785-11.963,9.195c-5.13,2.631-10.945,5.612-13.495,12.033c-11.036,27.784-27.796,40.957-32.867,44.453
		h-78.665h-2.529c-6.595-4.49-33.055-25.312-41.021-74.682h183.769C241.037,222.52,239.909,225.402,238.426,227.704z"/>
	<path style="fill:#FFA5A5;" d="M253.993,114.299c8.305-7.868,12.95-27.578,7.331-48.181l-51.558,17.468l2.094,6.18
		c4.325,12.765,12.852,23.42,21.695,30.186h0.001c0.894,0.266,1.77,0.479,2.621,0.629c2.848,0.5,5.031,2.546,5.85,5.123
		l26.283,61.138l-16.212-64.559C251.121,119.567,251.764,116.412,253.993,114.299z"/>
	<path style="fill:#D15252;" d="M305.646,273.935l-38.209-152.15c11.907-14.67,14.879-40.86,6.844-64.573l-4.501-13.282
		c-0.639-1.884-1.999-3.437-3.783-4.317c-1.783-0.881-3.845-1.017-5.728-0.379l-1.018,0.345l-11.82-34.507
		c-1.342-3.918-5.607-6.005-9.525-4.665c-3.919,1.343-6.007,5.607-4.665,9.526l11.803,34.459l-6.067,2.056l-11.797-34.44
		c-1.342-3.918-5.604-6.005-9.525-4.665c-3.919,1.343-6.007,5.608-4.665,9.526l11.78,34.393l-6.067,2.056l-11.773-34.373
		c-1.342-3.918-5.604-6.006-9.525-4.665c-3.919,1.343-6.007,5.607-4.665,9.526l11.757,34.325l-6.067,2.056L186.68,25.879
		c-1.342-3.918-5.604-6.005-9.525-4.665c-3.919,1.343-6.007,5.607-4.665,9.526l11.745,34.289c-3.522,1.548-5.339,5.555-4.082,9.267
		l4.5,13.283c8.436,24.895,28.471,41.897,44.763,46.77l62.066,144.375c1.221,2.84,3.987,4.54,6.894,4.54
		C298.98,283.264,307.226,282.773,305.646,273.935z M242.026,125.704c-0.819-2.577-3.002-4.623-5.85-5.123
		c-0.85-0.149-1.727-0.363-2.621-0.629c-12.28-3.647-28.21-18.046-34.695-37.186l-2.094-6.18l61.215-20.739l2.093,6.179
		c0.463,1.366,0.878,2.731,1.25,4.093c5.619,20.603,0.974,40.312-7.331,48.181c-2.23,2.112-2.873,5.268-1.896,7.983l16.212,64.559
		L242.026,125.704z"/>
</g>
<g>
</g>
<g>
</g>
<g>
</g>
<g>
</g>
<g>
</g>
<g>
</g>
<g>
</g>
<g>
</g>
<g>
</g>
<g>
</g>
<g>
</g>
<g>
</g>
<g>
</g>
<g>
</g>
<g>
</g>
</svg>
